<svg role="img" viewBox="0 0 192 192" width="192" height="192" xmlns="http://www.w3.org/2000/svg">
 <g>
  <path stroke="null" fill="#F5F5F5" d="m180.89828,76.16071c-0.01289,25.9962 -0.0834,51.99264 0.02605,77.98832c0.01569,3.72188 -0.712,6.82895 -3.4711,9.40047c-0.96621,0.90054 -1.75828,1.99466 -2.58823,3.03365c-7.85183,9.82929 -16.94358,14.80729 -30.63922,14.3551c-35.12352,-1.15964 -70.31103,-0.33502 -105.47197,-0.5067c-2.5414,-0.01241 -5.66151,-1.01262 -7.50318,-2.67308c-5.78783,-5.2184 -11.19204,-10.87999 -16.50338,-16.59435c-1.07124,-1.15251 -1.47205,-3.27987 -1.51476,-4.97459c-0.16787,-6.66129 -0.06923,-13.32929 0.30541,-20.53239c16.65548,-6.38503 32.97226,-12.13494 49.18571,-18.1628c3.20879,-1.19296 4.04385,0.83832 5.5262,2.54207c10.86549,12.48837 26.71936,16.97337 40.9878,11.63798c15.53859,-5.81034 24.46608,-18.72708 24.45326,-35.77672c-0.00206,-2.73774 0.58058,-4.12233 3.34865,-5.0495c8.98848,-3.01068 17.83107,-6.45474 26.80229,-9.51992c5.61817,-1.91955 11.36652,-3.45806 17.05647,-5.16754z"/>
  <path fill="#BC3736" d="m180.73807,35.98478c0.02357,7.30247 0.04713,14.60494 -0.3376,22.44675c-16.36843,6.25121 -32.34636,11.91422 -48.27071,17.72415c-2.58409,0.9428 -4.13733,0.51137 -6.01203,-1.55409c-2.87357,-3.16597 -5.916,-6.41589 -9.49472,-8.66115c-11.7466,-7.3697 -24.21132,-8.10241 -36.48813,-1.59436c-13.11021,6.94984 -19.96412,18.16446 -19.97079,33.15803c-0.00139,3.12368 -0.7991,4.76036 -3.96892,5.75443c-6.17742,1.9373 -12.1545,4.50311 -18.28519,6.60232c-7.99109,2.73623 -16.05083,5.27195 -24.11482,7.76498c-0.12712,-0.28978 -0.25932,-0.40672 -0.43039,-0.47982c-0.07165,-26.74308 -0.1433,-53.48616 0.10871,-80.87137c3.80099,-4.42542 7.18826,-8.29697 10.78291,-11.96531c3.11875,-3.18268 6.47237,-6.13521 10.19093,-9.2248c42.1763,-0.00807 83.88384,0.01921 125.73829,0.33421c6.94874,7.04716 13.75059,13.80659 20.55246,20.56603z"/>
  <path fill="#3B3A3A" d="m13.82894,117.75481c8.03021,-2.622 16.08995,-5.15772 24.08104,-7.89395c6.13069,-2.09921 12.10777,-4.66502 18.28519,-6.60232c3.16982,-0.99407 3.96753,-2.63075 3.96892,-5.75443c0.00667,-14.99357 6.86058,-26.20819 19.97079,-33.15803c12.27681,-6.50805 24.74153,-5.77534 36.48813,1.59436c3.57872,2.24526 6.62115,5.49518 9.49472,8.66115c1.8747,2.06546 3.42794,2.49689 6.01203,1.55409c15.92435,-5.80993 31.90228,-11.47294 48.20798,-17.27303c0.45994,5.3841 0.57435,10.85641 0.62465,16.8034c-5.75406,2.18414 -11.50241,3.72265 -17.12058,5.6422c-8.97122,3.06518 -17.81381,6.50924 -26.80229,9.51992c-2.76807,0.92717 -3.35071,2.31176 -3.34865,5.0495c0.01282,17.04964 -8.91467,29.96638 -24.45326,35.77672c-14.26844,5.33539 -30.12231,0.85039 -40.9878,-11.63798c-1.48235,-1.70375 -2.31741,-3.73503 -5.5262,-2.54207c-16.21345,6.02786 -32.53023,11.77777 -49.17038,17.71291c-0.38563,-5.37319 -0.41165,-10.83412 -0.21775,-16.80161c0.21992,-0.50655 0.49346,-0.65083 0.49346,-0.65083m104.92772,-36.94205c-8.03439,-9.957 -20.74572,-13.58134 -31.70269,-9.03928c-11.97012,4.96205 -18.51176,16.32669 -16.81953,29.22023c1.49247,11.37162 10.77141,21.02619 22.12032,22.65165c11.16391,1.59897 20.60316,-1.86554 26.93374,-11.32058c6.7643,-10.10284 6.42203,-20.6421 -0.53184,-31.51202z"/>
  <path fill="#C86665" d="m160.03871,15.13103c-41.70755,-0.02728 -83.41509,-0.05456 -125.65452,-0.4585c-0.62964,-0.63588 -0.7274,-0.8951 -0.82516,-1.15433c1.46798,-0.16934 2.93589,-0.4859 4.40394,-0.48656c40.03325,-0.01804 80.0665,-0.00383 120.70086,0.3051c0.85903,0.79817 1.11696,1.29623 1.37488,1.79429z"/>
  <path fill="#A9504F" d="m160.18561,15.41875c-0.40482,-0.78578 -0.66275,-1.28384 -1.05652,-2.02642c9.12031,5.1968 16.55228,12.44434 21.69064,22.23722c-6.88353,-6.40421 -13.68538,-13.16364 -20.63412,-20.2108z"/>
  <path fill="#A9504F" d="m33.26984,13.6778c0.38695,0.09963 0.48471,0.35885 0.6456,1.03008c-3.18668,3.46625 -6.5403,6.41878 -9.65905,9.60146c-3.59465,3.66834 -6.98192,7.53989 -10.72836,11.49896c0.16164,-1.11484 0.22718,-2.76088 1.08178,-3.63902c6.03279,-6.19901 12.22769,-12.24027 18.66003,-18.49148z"/>
  <path fill="#A9504F" d="m13.79516,117.62584c0.03378,0.12897 -0.23976,0.27325 -0.38806,0.31621c-0.1483,0.04294 -0.18462,-0.38895 -0.11347,-0.59249c0.24221,-0.13044 0.37441,-0.0135 0.50153,0.27628z"/>
  <path fill="#F7F7F7" d="m118.98253,81.09866c6.728,10.58402 7.07027,21.12328 0.30597,31.22612c-6.33058,9.45504 -15.76983,12.91955 -26.93374,11.32058c-11.34891,-1.62546 -20.62785,-11.28003 -22.12032,-22.65165c-1.69223,-12.89354 4.84941,-24.25818 16.81953,-29.22023c10.95697,-4.54206 23.6683,-0.91772 31.92856,9.32518m-3.89902,8.72223c-3.85141,-8.5606 -10.46542,-12.27684 -19.82316,-11.87741c-9.39462,0.401 -18.75562,10.08932 -18.04033,19.12712c0.92331,11.66619 10.68219,20.64917 21.00164,19.33184c13.56421,-1.73153 20.23419,-11.7949 16.86185,-26.58155z"/>
  <path fill="#F0F0F0" d="m115.20138,90.21362c3.25447,14.39392 -3.41551,24.45729 -16.97972,26.18882c-10.31945,1.31733 -20.07833,-7.66565 -21.00164,-19.33184c-0.71529,-9.0378 8.64571,-18.72612 18.04033,-19.12712c9.35774,-0.39943 15.97175,3.31681 19.94103,12.27014z"/>
 </g>
</svg>